<svg width="25" height="25" version="1.1" viewBox="0 0 25 25" xmlns="http://www.w3.org/2000/svg">
 <g transform="matrix(.069039 0 0 .048212 -4.1849 .6616)">
  <path d="m131.75 409.1c-28.8 0-52.1 18.3-52.1 40.4 0 22.6 23.3 40.4 52.1 40.4h278.4c-22.6-24.1-22.6-56.8 0-80.9h-278.4z"/>
  <path d="m120.15 1.9c-23.3 7-40.4 32.7-40.4 63.8v342.2c10.5-9.3 24.9-15.9 40.4-17.9z"/>
  <polygon points="139.95 388.9 410.25 388.9 410.25 0 244.95 0 244.95 99.2 204.85 73.9 164.85 99.2 164.85 0 139.95 0"/>
 </g>
</svg>
