<?xml version="1.0" encoding="UTF-8" standalone="no"?>
<svg
   xmlns:dc="http://purl.org/dc/elements/1.1/"
   xmlns:cc="http://creativecommons.org/ns#"
   xmlns:rdf="http://www.w3.org/1999/02/22-rdf-syntax-ns#"
   xmlns:svg="http://www.w3.org/2000/svg"
   xmlns="http://www.w3.org/2000/svg"
   xmlns:sodipodi="http://sodipodi.sourceforge.net/DTD/sodipodi-0.dtd"
   xmlns:inkscape="http://www.inkscape.org/namespaces/inkscape"
   version="1.1"
   id="Layer_1"
   x="0px"
   y="0px"
   width="250"
   height="250"
   viewBox="0 0 130.20833 130.20833"
   enable-background="new 0 0 48 48"
   xml:space="preserve"
   sodipodi:docname="DisplayCell_Full.svg"
   inkscape:version="1.0.2-2 (e86c870879, 2021-01-15)"><metadata
   id="metadata865"><rdf:RDF><cc:Work
       rdf:about=""><dc:format>image/svg+xml</dc:format><dc:type
         rdf:resource="http://purl.org/dc/dcmitype/StillImage" /><dc:title></dc:title></cc:Work></rdf:RDF></metadata><defs
   id="defs863" /><sodipodi:namedview
   pagecolor="#ffffff"
   bordercolor="#666666"
   borderopacity="1"
   objecttolerance="10"
   gridtolerance="10"
   guidetolerance="10"
   inkscape:pageopacity="0"
   inkscape:pageshadow="2"
   inkscape:window-width="1920"
   inkscape:window-height="1017"
   id="namedview861"
   showgrid="false"
   inkscape:zoom="1.5228576"
   inkscape:cx="199.38161"
   inkscape:cy="90.583149"
   inkscape:window-x="-8"
   inkscape:window-y="-8"
   inkscape:window-maximized="1"
   inkscape:current-layer="Layer_1" />
<g
   id="color_21_"
   transform="matrix(2.8344201,0,0,2.8344201,-6.2627102,-5.5032603)">
	<g
   id="g852">
		<path
   fill="#ffda8e"
   d="M 44,5 H 7 C 6.447,5 6,5.447 6,6 v 38 c 0,0.553 0.447,1 1,1 h 37 c 0.553,0 1,-0.447 1,-1 V 6 C 45,5.447 44.553,5 44,5 Z"
   id="path850" />
	</g>
</g>
<g
   id="outline_20_"
   transform="matrix(2.8344201,0,0,2.8344201,-2.2548402,-2.6688402)">
	<g
   id="g857">
		<path
   fill="#384d68"
   d="M 45,2 H 3 C 2.447,2 2,2.447 2,3 v 42 c 0,0.553 0.447,1 1,1 h 42 c 0.553,0 1,-0.447 1,-1 V 3 C 46,2.447 45.553,2 45,2 Z m -2.414,2 -4,4 H 9.414 l -4,-4 z M 10,34.087 v -4.67 L 38,13.339 v 4.67 z M 38,20.339 V 38 H 33 V 23.21 Z m -7,4.019 V 38 H 25 V 27.804 Z m -8,4.594 V 38 h -6 v -5.603 z m -8,4.594 V 38 H 10 V 36.417 Z M 10,27.087 V 10 h 5 v 14.216 z m 7,-4.02 V 10 h 6 v 9.622 z M 31.05,15 25,18.474 V 10 h 6 v 5 z M 33,13.88 V 10 h 5 v 1.009 z M 4,5.414 l 4,4 v 29.172 l -4,4 z M 5.414,44 l 4,-4 h 29.172 l 4,4 z M 44,42.586 l -4,-4 V 9.414 l 4,-4 z"
   id="path855" />
	</g>
</g>
</svg>
