<svg width="250" height="250" enable-background="new 0 0 48 48" version="1.1" viewBox="0 0 130.21 130.21" xml:space="preserve" xmlns="http://www.w3.org/2000/svg">
<g id="color_21_" transform="matrix(2.8344 0 0 2.8344 -6.2627 -5.5033)">
	
		<path d="m44 5h-37c-0.553 0-1 0.447-1 1v38c0 0.553 0.447 1 1 1h37c0.553 0 1-0.447 1-1v-38c0-0.553-0.447-1-1-1z" fill="#ffda8e"/>
	
</g>
<g id="outline_20_" transform="matrix(2.8344 0 0 2.8344 -2.2548 -2.6688)">
	
		<path d="m45 2h-42c-0.553 0-1 0.447-1 1v42c0 0.553 0.447 1 1 1h42c0.553 0 1-0.447 1-1v-42c0-0.553-0.447-1-1-1zm-2.414 2-4 4h-29.172l-4-4zm-32.586 30.087v-4.67l28-16.078v4.67zm28-13.748v17.661h-5v-14.79zm-7 4.019v13.642h-6v-10.196zm-8 4.594v9.048h-6v-5.603zm-8 4.594v4.454h-5v-1.583zm-5-6.459v-17.087h5v14.216zm7-4.02v-13.067h6v9.622zm14.05-8.067-6.05 3.474v-8.474h6v5zm1.95-1.12v-3.88h5v1.009zm-29-8.466 4 4v29.172l-4 4zm1.414 38.586 4-4h29.172l4 4zm38.586-1.414-4-4v-29.172l4-4z" fill="#384d68"/>
	
</g>
</svg>
