<?xml version="1.0" encoding="UTF-8" standalone="no"?>
<svg
   xmlns:dc="http://purl.org/dc/elements/1.1/"
   xmlns:cc="http://creativecommons.org/ns#"
   xmlns:rdf="http://www.w3.org/1999/02/22-rdf-syntax-ns#"
   xmlns:svg="http://www.w3.org/2000/svg"
   xmlns="http://www.w3.org/2000/svg"
   xmlns:sodipodi="http://sodipodi.sourceforge.net/DTD/sodipodi-0.dtd"
   xmlns:inkscape="http://www.inkscape.org/namespaces/inkscape"
   width="250mm"
   height="250mm"
   viewBox="0 0 25 25"
   version="1.1"
   id="svg8"
   inkscape:version="1.0.2-2 (e86c870879, 2021-01-15)"
   sodipodi:docname="Dockable.svg">
  <defs
     id="defs2" />
  <sodipodi:namedview
     id="base"
     pagecolor="#ffffff"
     bordercolor="#666666"
     borderopacity="1.0"
     inkscape:pageopacity="0.0"
     inkscape:pageshadow="2"
     inkscape:zoom="0.7"
     inkscape:cx="494.39584"
     inkscape:cy="527.01721"
     inkscape:document-units="mm"
     inkscape:current-layer="layer1"
     inkscape:document-rotation="0"
     showgrid="false"
     inkscape:window-width="1920"
     inkscape:window-height="1017"
     inkscape:window-x="-8"
     inkscape:window-y="-8"
     inkscape:window-maximized="1" />
  <metadata
     id="metadata5">
    <rdf:RDF>
      <cc:Work
         rdf:about="">
        <dc:format>image/svg+xml</dc:format>
        <dc:type
           rdf:resource="http://purl.org/dc/dcmitype/StillImage" />
        <dc:title></dc:title>
      </cc:Work>
    </rdf:RDF>
  </metadata>
  <g
     inkscape:label="Layer 1"
     inkscape:groupmode="layer"
     id="layer1">
    <path
       id="path833"
       style="fill:none;stroke:#000000;stroke-width:0.358451;stroke-linecap:round;stroke-linejoin:round;stroke-miterlimit:4;stroke-dasharray:1.4338, 1.4338;stroke-dashoffset:0"
       d="m 11.690503,9.010142 a 2.9179155,2.9179147 0 0 0 -2.9178559,2.917917 2.9179155,2.9179147 0 0 0 2.9179149,2.917915 2.9179155,2.9179147 0 0 0 2.754319,-1.954761 h 9.79783 v -2.100291 h -9.86495 a 2.9179155,2.9179147 0 0 0 -2.687199,-1.78078 2.9179155,2.9179147 0 0 1 -5.9e-5,0 z" />
    <path
       id="rect849"
       style="fill:#000000;stroke:#000000;stroke-width:0.0105245;stroke-linecap:round;stroke-linejoin:round"
       d="M 0.68063842,2.4571187 V 22.149129 H 21.805537 v -8.426177 h -5.176945 a 5.1367367,5.1367351 0 0 1 -4.848779,3.441139 5.1367367,5.1367351 0 0 1 -5.1367493,-5.136677 5.1367367,5.1367351 0 0 1 5.1366773,-5.1367489 5.1367367,5.1367351 0 0 1 7.2e-5,0 5.1367367,5.1367351 0 0 1 4.730587,3.1348849 h 5.295137 V 2.4571187 Z" />
  </g>
</svg>
