<svg width="250mm" height="250mm" version="1.1" viewBox="0 0 25 25" xmlns="http://www.w3.org/2000/svg">
 <g stroke="#000" stroke-linecap="round" stroke-linejoin="round">
  <path d="m11.691 9.0101a2.9179 2.9179 0 0 0-2.9179 2.9179 2.9179 2.9179 0 0 0 2.9179 2.9179 2.9179 2.9179 0 0 0 2.7543-1.9548h9.7978v-2.1003h-9.865a2.9179 2.9179 0 0 0-2.6872-1.7808 2.9179 2.9179 0 0 1-5.9e-5 0z" fill="none" stroke-dasharray="1.4338, 1.4338" stroke-width=".35845"/>
  <path d="m0.68064 2.4571v19.692h21.125v-8.4262h-5.1769a5.1367 5.1367 0 0 1-4.8488 3.4411 5.1367 5.1367 0 0 1-5.1367-5.1367 5.1367 5.1367 0 0 1 5.1367-5.1367 5.1367 5.1367 0 0 1 7.2e-5 0 5.1367 5.1367 0 0 1 4.7306 3.1349h5.2951v-7.5684z" stroke-width=".010524"/>
 </g>
</svg>
